<?xml version="1.0" encoding="UTF-8" standalone="no"?>
<svg
   xmlns:dc="http://purl.org/dc/elements/1.1/"
   xmlns:cc="http://creativecommons.org/ns#"
   xmlns:rdf="http://www.w3.org/1999/02/22-rdf-syntax-ns#"
   xmlns:svg="http://www.w3.org/2000/svg"
   xmlns="http://www.w3.org/2000/svg"
   id="svg8"
   version="1.1"
   viewBox="0 0 210 297"
   height="297mm"
   width="210mm">
  <defs
     id="defs2" />
  <metadata
     id="metadata5">
    <rdf:RDF>
      <cc:Work
         rdf:about="">
        <dc:format>image/svg+xml</dc:format>
        <dc:type
           rdf:resource="http://purl.org/dc/dcmitype/StillImage" />
        <dc:title></dc:title>
      </cc:Work>
    </rdf:RDF>
  </metadata>
  <g
     id="layer1">
    <path
       style="stroke-width:0.26458332"
       d="m 107.5532,48.567199 c -2.64909,-0.151482 -5.28777,-0.01762 -7.899175,0.443564 -3.399252,0.320492 -6.199282,2.2401 -9.122981,3.812539 2.362689,-1.326253 4.671922,-2.752592 7.088068,-3.978761 0.901277,-0.457388 -1.697537,1.097804 -2.532732,1.666975 -3.821996,2.60463 -7.449306,5.376516 -10.960748,8.38467 -7.835058,6.532591 -14.260179,14.533522 -20.911237,22.216091 -6.339361,7.321087 -12.402889,14.890176 -17.415542,23.188743 -4.810233,8.32017 -5.642014,17.96363 -6.613448,27.32294 -0.872596,9.34934 -1.091068,18.73981 -1.205582,28.12344 -0.272338,8.11421 0.49511,16.20999 1.755452,24.21596 1.078757,4.76736 2.740589,9.44861 5.528011,13.5044 1.408732,2.04975 2.447653,3.04901 4.110675,4.8471 4.67237,4.1731 10.293908,7.03033 15.910962,9.70292 4.822934,2.41433 9.927056,4.13055 15.001103,5.91525 4.210946,1.47079 8.656999,2.08263 13.063653,2.64367 4.958064,0.53826 9.951131,0.60787 14.933171,0.67043 6.12678,0.22601 12.22818,-0.10837 18.30246,-0.89136 4.51288,-0.64546 9.0371,-1.52214 13.27148,-3.24683 1.6858,-0.69544 3.28016,-1.58392 4.87618,-2.4595 0.50749,-0.27841 2.02273,-1.12664 1.51991,-0.83988 -8.671,4.94514 -10.43209,6.28329 -6.59931,3.5329 2.48159,-1.8771 4.45025,-4.17861 6.00288,-6.85634 2.4803,-5.05134 3.58053,-10.60764 4.68707,-16.08252 1.21375,-6.14233 2.34447,-12.29886 3.32639,-18.48254 0.78613,-3.86995 1.16765,-7.80119 1.81986,-11.69155 0.83827,-4.17649 1.37999,-8.39383 1.93141,-12.61383 0.80514,-6.41944 0.96191,-12.89717 1.02081,-19.35949 0.0715,-5.15552 0.0167,-10.31141 0.0256,-15.46723 0.16884,-4.69398 -0.65921,-9.3149 -1.38796,-13.92844 -0.7014,-5.736115 -1.76439,-11.416492 -3.07641,-17.041822 -1.01723,-4.620955 -2.61142,-9.061494 -4.40478,-13.427471 -1.49308,-3.081375 -3.58848,-5.852144 -5.8806,-8.382738 -1.95129,-1.971461 -4.32284,-3.393821 -6.74865,-4.692753 -2.55431,-1.126424 -5.13198,-2.152674 -7.86667,-2.733646 -3.54115,-0.609198 -7.11613,-0.973196 -10.68554,-1.376413 -3.74811,-0.278114 -7.42238,-1.091705 -11.14083,-1.587706 -3.01033,-0.294138 -5.98457,-0.845596 -8.996275,-1.130994 -1.896099,-0.155892 -3.799392,-0.168362 -5.700588,-0.170944 -1.392512,-0.0095 -2.784829,0.02977 -4.177252,0.02363 -1.187011,0.0044 -2.296676,0.484957 -3.373731,0.932564 16.369166,-9.624481 10.456833,-6.109597 6.946201,-3.763076 -0.08103,0.07849 -0.162065,0.156987 -0.243099,0.235479 0,0 -10.343404,4.454167 -10.343404,4.454167 v 0 c 0.0686,-0.11994 0.137203,-0.239879 0.205804,-0.35982 2.621029,-4.001727 12.148812,-1.643779 12.256545,-7.490079 1.157033,-0.419512 2.386391,-0.651052 3.620235,-0.601352 1.380649,-0.01275 2.761424,0.01302 4.142094,0.0159 1.91055,0.02661 3.82233,0.07591 5.72237,0.295796 2.96182,0.374989 5.89409,0.947632 8.86532,1.253286 3.70815,0.49057 7.37607,1.277015 11.11025,1.584971 3.63102,0.420021 7.28839,0.682379 10.87843,1.39474 2.77841,0.699368 5.44272,1.765425 8.03762,2.97519 2.51566,1.374873 4.92458,2.960195 6.92287,5.03987 2.31285,2.670424 4.47356,5.545135 5.9823,8.752695 1.79104,4.440663 3.28672,8.985689 4.32906,13.665514 1.29733,5.64396 2.38951,11.329829 3.16265,17.071324 0.81984,4.646858 1.69668,9.329848 1.50204,14.070948 0.0106,5.18394 -0.0463,10.36707 -0.14116,15.55015 -0.19688,6.46197 -0.29398,12.93325 -0.81493,19.37964 -0.48462,4.23333 -1.08842,8.44017 -1.83636,12.63514 -0.74892,3.89583 -0.97471,7.87605 -1.95007,11.73391 -1.02911,6.24797 -2.36492,12.437 -3.59098,18.64795 -1.01031,5.46841 -1.89618,11.02372 -4.07064,16.17746 -0.23526,0.42993 -1.27504,2.35382 -1.54032,2.74053 -1.19209,1.73784 -2.7838,3.13577 -4.32196,4.55031 -5.59189,4.3944 -12.16114,7.63473 -18.62838,10.58634 -4.26662,1.51934 -8.74735,2.28892 -13.22826,2.88058 -6.13218,0.68315 -12.27894,1.00763 -18.452096,0.825 -5.027525,-0.0637 -10.067732,-0.14376 -15.06764,-0.7231 -4.458396,-0.54877 -8.923994,-1.3245 -13.163947,-2.85007 -5.089308,-1.73826 -10.104424,-3.69434 -14.910868,-6.12056 -5.729439,-2.75172 -11.51413,-5.6231 -16.182483,-10.02393 -1.493089,-1.69299 -2.895677,-3.17692 -4.159512,-5.06789 -2.807576,-4.20075 -4.480616,-9.02646 -5.608521,-13.91452 -1.268823,-8.04979 -2.093987,-16.20536 -1.863415,-24.36399 0.188391,-9.47499 0.657907,-18.94162 1.526878,-28.3806 0.887971,-9.36923 1.33213,-19.15683 6.034696,-27.55569 5.066755,-8.47976 11.389958,-16.083464 17.82151,-23.556472 6.527213,-7.581651 12.684572,-15.619338 20.325043,-22.134941 1.932567,-1.692203 3.378957,-3.014257 5.419101,-4.578659 6.060477,-4.647234 12.579723,-8.649698 19.279584,-12.307237 3.00011,-1.666303 5.98653,-3.323251 9.48347,-3.606641 2.70864,-0.342342 5.42277,-0.416203 8.15117,-0.421955 0,0 -9.08231,6.598685 -9.08231,6.598685 z"
       id="path18" />
    <path
       style="stroke-width:0.26458332"
       d="m 100.28237,60.22265 c 0.74293,7.408418 -1.226716,14.679248 -2.909262,21.820847 -2.046065,8.978762 -3.902488,18.000973 -5.927796,26.984043 -0.764638,3.39148 -1.622206,6.76168 -2.377104,10.15535 -1.298263,5.83636 -3.768217,17.97514 -4.934691,23.6478 -3.190864,16.7782 -6.382933,33.55131 -9.890225,50.26721 -0.869342,4.14331 -1.695395,8.29646 -2.645101,12.42209 -0.877988,3.81408 -1.891456,7.59569 -2.837182,11.39353 -3.982551,16.97879 -11.161538,32.92271 -18.08689,48.85043 -2.796564,5.94085 -1.425155,3.16508 -4.080288,8.34398 0,0 -9.554522,4.28689 -9.554522,4.28689 v 0 c 2.976972,-5.25815 1.444339,-2.43816 4.558696,-8.48117 7.455686,-15.93659 14.694768,-32.09039 19.147602,-49.16667 1.009171,-3.81594 2.101615,-7.61083 3.027514,-11.44783 4.997172,-20.70864 8.258026,-41.79501 12.505938,-62.65831 0.367549,-1.92309 4.015536,-21.07475 4.521428,-23.47935 0.711202,-3.38046 1.571746,-6.72802 2.307873,-10.10314 1.929365,-8.84607 3.632245,-17.743031 5.22493,-26.655126 1.440262,-6.905308 3.248364,-13.927106 2.06519,-21.019757 0,0 9.88389,-5.160817 9.88389,-5.160817 z"
       id="path20" />
    <path
       style="stroke-width:0.26458332"
       d="m 101.72974,73.123009 c 0.0867,1.596966 0.0887,2.390502 0.41788,4.098327 0.24849,1.289423 0.59478,2.55806 0.89144,3.83726 1.71477,7.394067 3.69073,14.704501 5.66202,22.034404 4.59905,14.68176 7.22226,29.85826 10.36043,44.89013 3.09105,14.8062 1.98402,9.61921 5.25527,24.20485 4.16941,20.53023 8.04038,41.1182 12.36233,61.61778 1.79536,8.95582 3.35607,17.95597 4.88189,26.96082 0,0 -9.39045,4.94771 -9.39045,4.94771 v 0 c -0.97974,-9.16779 -2.3552,-18.28339 -4.01658,-27.35294 -3.8232,-20.67728 -7.1988,-41.44169 -11.58204,-62.01192 -5.03634,-22.98511 -9.02972,-46.26828 -16.18872,-68.72534 -2.137205,-7.2 -4.374407,-14.364118 -6.583041,-21.541946 -0.389575,-1.266068 -0.848635,-2.511187 -1.201295,-3.788032 -0.347245,-1.257231 -0.582689,-2.793711 -0.804804,-4.108624 0,0 9.93567,-5.062479 9.93567,-5.062479 z"
       id="path22" />
    <path
       style="stroke-width:0.26458332"
       d="m 18.864778,158.12417 c 1.314064,-0.24065 1.703199,-0.33111 3.208431,-0.49002 8.518241,-0.89929 17.012469,-1.85887 25.504226,-3 21.276191,-3.40604 42.683623,-5.83588 64.081575,-8.32151 13.49225,-1.37108 26.85292,-3.7375 40.12213,-6.49494 0.98983,-0.21421 1.97967,-0.42843 2.96951,-0.64264 0,0 -8.55048,6.47483 -8.55048,6.47483 v 0 c -0.9379,0.17264 -1.87579,0.34527 -2.81369,0.51791 -12.93659,2.35994 -25.9439,4.38145 -39.04436,5.58688 -11.239726,1.21738 -22.481101,2.42245 -33.685658,3.9388 -10.951982,1.48217 -10.894454,1.60475 -21.415927,3.23708 -3.092233,0.47974 -6.188197,0.9351 -9.282295,1.40265 -9.998792,1.45155 -20.060825,2.6341 -29.9810841,4.54997 0,0 8.8876221,-6.75901 8.8876221,-6.75901 z"
       id="path24" />
  </g>
</svg>
